<?xml version="1.0" encoding="us-ascii" standalone="no"?>
<svg xmlns="http://www.w3.org/2000/svg" contentStyleType="text/css" height="817.8px" preserveAspectRatio="none"
     style="width:1074px;height:817px;background:#FFFFFF;" version="1.1" viewBox="0 0 1074 817" width="1074px"
     zoomAndPan="magnify"><defs/><g><!--cluster coverage--><g id="cluster_coverage"><path d="M17.502,4.0313 L165.702,4.0313 A2.25,2.25 0 0 1 167.202,5.5313 L171.402,21.7641 L1068.702,21.7641 A1.5,1.5 0 0 1 1070.202,23.2641 L1070.202,812.5313 A1.5,1.5 0 0 1 1068.702,814.0313 L17.502,814.0313 A1.5,1.5 0 0 1 16.002,812.5313 L16.002,5.5313 A1.5,1.5 0 0 1 17.502,4.0313 " fill="none" style="stroke:#000000;stroke-width:0.8999999999999999;"/><line style="stroke:#000000;stroke-width:0.8999999999999999;" x1="16.002" x2="171.402" y1="21.7641" y2="21.7641"/><text fill="#000000" font-family="sans-serif" font-size="12" font-weight="bold" lengthAdjust="spacing" textLength="147.6" x="18.402" y="16.8328">edu.hm.hafner.coverage</text></g><!--cluster parser--><g id="cluster_parser"><path d="M31.902,716.8313 L72.102,716.8313 A2.25,2.25 0 0 1 73.602,718.3313 L77.802,734.5641 L644.502,734.5641 A1.5,1.5 0 0 1 646.002,736.0641 L646.002,798.1313 A1.5,1.5 0 0 1 644.502,799.6313 L31.902,799.6313 A1.5,1.5 0 0 1 30.402,798.1313 L30.402,718.3313 A1.5,1.5 0 0 1 31.902,716.8313 " fill="none" style="stroke:#000000;stroke-width:0.8999999999999999;"/><line style="stroke:#000000;stroke-width:0.8999999999999999;" x1="30.402" x2="77.802" y1="734.5641" y2="734.5641"/><text fill="#000000" font-family="sans-serif" font-size="12" font-weight="bold" lengthAdjust="spacing" textLength="39.6" x="32.802" y="729.6328">parser</text></g><!--class CoverageParser--><g id="elem_CoverageParser"><rect codeLine="23" fill="#F0F0F0" height="47.7563" id="CoverageParser" rx="1.5" ry="1.5" style="stroke:#000000;stroke-width:0.3;" width="184.8" x="143.202" y="640.6313"/><text fill="#000000" font-family="Arial Unicode MS" font-size="12" font-style="italic" lengthAdjust="spacing" textLength="87" x="192.102" y="656.4574">CoverageParser</text><line style="stroke:#000000;stroke-width:0.3;" x1="143.802" x2="327.402" y1="662.7094" y2="662.7094"/><line style="stroke:#000000;stroke-width:0.3;" x1="143.802" x2="327.402" y1="667.5094" y2="667.5094"/><text fill="#000000" font-family="Arial Unicode MS" font-size="12" font-style="italic" lengthAdjust="spacing" textLength="177.6" x="146.802" y="682.7355">+parse(reader, log): ModuleNode</text></g><!--class Node--><g id="elem_Node"><rect codeLine="39" fill="#FFF8DC" height="79.9125" id="Node" rx="1.5" ry="1.5" style="stroke:#000000;stroke-width:0.3;" width="114" x="525.402" y="334.9313"/><text fill="#000000" font-family="Arial Unicode MS" font-size="12" font-style="italic" lengthAdjust="spacing" textLength="28.2" x="568.302" y="350.7574">Node</text><line style="stroke:#000000;stroke-width:0.3;" x1="526.002" x2="638.802" y1="357.0094" y2="357.0094"/><text fill="#000000" font-family="Arial Unicode MS" font-size="12" lengthAdjust="spacing" textLength="106.8" x="529.002" y="372.2355">-metric: Metric &#171;pk&#187;</text><text fill="#000000" font-family="Arial Unicode MS" font-size="12" lengthAdjust="spacing" textLength="102.6" x="529.002" y="388.3137">-name: Name &#171;pk&#187;</text><line style="stroke:#000000;stroke-width:0.3;" x1="526.002" x2="638.802" y1="393.9656" y2="393.9656"/><text fill="#000000" font-family="Arial Unicode MS" font-size="12" font-style="italic" lengthAdjust="spacing" textLength="76.2" x="529.002" y="409.1918">+copy(): Node</text></g><!--class ContainerNode--><g id="elem_ContainerNode"><rect codeLine="46" fill="#FFF8DC" height="47.7563" id="ContainerNode" rx="1.5" ry="1.5" style="stroke:#000000;stroke-width:0.3;" width="135" x="350.502" y="515.8313"/><text fill="#000000" font-family="Arial Unicode MS" font-size="12" lengthAdjust="spacing" textLength="79.8" x="378.102" y="531.6574">ContainerNode</text><line style="stroke:#000000;stroke-width:0.3;" x1="351.102" x2="484.902" y1="537.9094" y2="537.9094"/><line style="stroke:#000000;stroke-width:0.3;" x1="351.102" x2="484.902" y1="542.7094" y2="542.7094"/><text fill="#000000" font-family="Arial Unicode MS" font-size="12" lengthAdjust="spacing" textLength="127.8" x="354.102" y="557.9355">+copy(): ContainerNode</text></g><!--class ModuleNode--><g id="elem_ModuleNode"><rect codeLine="50" fill="#FFF8DC" height="79.9125" id="ModuleNode" rx="1.5" ry="1.5" style="stroke:#000000;stroke-width:0.3;" width="124.8" x="506.802" y="499.9313"/><text fill="#000000" font-family="Arial Unicode MS" font-size="12" lengthAdjust="spacing" textLength="67.2" x="535.602" y="515.7574">ModuleNode</text><line style="stroke:#000000;stroke-width:0.3;" x1="507.402" x2="631.002" y1="522.0094" y2="522.0094"/><text fill="#000000" font-family="Arial Unicode MS" font-size="12" lengthAdjust="spacing" textLength="117.6" x="510.402" y="537.2355">-sources: List&lt;String&gt;</text><line style="stroke:#000000;stroke-width:0.3;" x1="507.402" x2="631.002" y1="542.8875" y2="542.8875"/><text fill="#000000" font-family="Arial Unicode MS" font-size="12" lengthAdjust="spacing" textLength="115.2" x="510.402" y="558.1137">+copy(): ModuleNode</text><text fill="#000000" font-family="Arial Unicode MS" font-size="12" lengthAdjust="spacing" textLength="88.8" x="510.402" y="574.1918">+splitPackages()</text></g><!--class PackageNode--><g id="elem_PackageNode"><rect codeLine="56" fill="#FFF8DC" height="63.8344" id="PackageNode" rx="1.5" ry="1.5" style="stroke:#000000;stroke-width:0.3;" width="129.6" x="652.602" y="508.0313"/><text fill="#000000" font-family="Arial Unicode MS" font-size="12" lengthAdjust="spacing" textLength="74.4" x="680.202" y="523.8574">PackageNode</text><line style="stroke:#000000;stroke-width:0.3;" x1="653.202" x2="781.602" y1="530.1094" y2="530.1094"/><line style="stroke:#000000;stroke-width:0.3;" x1="653.202" x2="781.602" y1="534.9094" y2="534.9094"/><text fill="#000000" font-family="Arial Unicode MS" font-size="12" lengthAdjust="spacing" textLength="95.4" x="656.202" y="550.1355">+getPath(): String</text><text fill="#000000" font-family="Arial Unicode MS" font-size="12" lengthAdjust="spacing" textLength="122.4" x="656.202" y="566.2137">+copy(): PackageNode</text></g><!--class ClassNode--><g id="elem_ClassNode"><rect codeLine="61" fill="#FFF8DC" height="47.7563" id="ClassNode" rx="1.5" ry="1.5" style="stroke:#000000;stroke-width:0.3;" width="112.8" x="803.202" y="515.8313"/><text fill="#000000" font-family="Arial Unicode MS" font-size="12" lengthAdjust="spacing" textLength="57.6" x="830.802" y="531.6574">ClassNode</text><line style="stroke:#000000;stroke-width:0.3;" x1="803.802" x2="915.402" y1="537.9094" y2="537.9094"/><line style="stroke:#000000;stroke-width:0.3;" x1="803.802" x2="915.402" y1="542.7094" y2="542.7094"/><text fill="#000000" font-family="Arial Unicode MS" font-size="12" lengthAdjust="spacing" textLength="105.6" x="806.802" y="557.9355">+copy(): ClassNode</text></g><!--class MethodNode--><g id="elem_MethodNode"><rect codeLine="65" fill="#FFF8DC" height="79.9125" id="MethodNode" rx="1.5" ry="1.5" style="stroke:#000000;stroke-width:0.3;" width="123.6" x="937.002" y="499.9313"/><text fill="#000000" font-family="Arial Unicode MS" font-size="12" lengthAdjust="spacing" textLength="68.4" x="964.602" y="515.7574">MethodNode</text><line style="stroke:#000000;stroke-width:0.3;" x1="937.602" x2="1060.002" y1="522.0094" y2="522.0094"/><text fill="#000000" font-family="Arial Unicode MS" font-size="12" lengthAdjust="spacing" textLength="109.8" x="940.602" y="537.2355">-lineNumber: Integer</text><text fill="#000000" font-family="Arial Unicode MS" font-size="12" lengthAdjust="spacing" textLength="91.8" x="940.602" y="553.3137">-signature: String</text><line style="stroke:#000000;stroke-width:0.3;" x1="937.602" x2="1060.002" y1="558.9656" y2="558.9656"/><text fill="#000000" font-family="Arial Unicode MS" font-size="12" lengthAdjust="spacing" textLength="116.4" x="940.602" y="574.1918">+copy(): MethodNode</text></g><!--class FileNode--><g id="elem_FileNode"><rect codeLine="71" fill="#FFF8DC" height="47.7563" id="FileNode" rx="1.5" ry="1.5" style="stroke:#000000;stroke-width:0.3;" width="102" x="227.202" y="515.8313"/><text fill="#000000" font-family="Arial Unicode MS" font-size="12" lengthAdjust="spacing" textLength="46.8" x="254.802" y="531.6574">FileNode</text><line style="stroke:#000000;stroke-width:0.3;" x1="227.802" x2="328.602" y1="537.9094" y2="537.9094"/><line style="stroke:#000000;stroke-width:0.3;" x1="227.802" x2="328.602" y1="542.7094" y2="542.7094"/><text fill="#000000" font-family="Arial Unicode MS" font-size="12" lengthAdjust="spacing" textLength="94.8" x="230.802" y="557.9355">+copy(): FileNode</text></g><!--class Value--><g id="elem_Value"><rect codeLine="75" fill="#FFE4B5" height="128.1469" id="Value" rx="1.5" ry="1.5" style="stroke:#000000;stroke-width:0.3;" width="200.4" x="245.202" y="310.6312"/><text fill="#000000" font-family="Arial Unicode MS" font-size="12" font-style="italic" lengthAdjust="spacing" textLength="30" x="330.402" y="326.4574">Value</text><line style="stroke:#000000;stroke-width:0.3;" x1="245.802" x2="445.002" y1="332.7094" y2="332.7094"/><text fill="#000000" font-family="Arial Unicode MS" font-size="12" lengthAdjust="spacing" textLength="77.4" x="248.802" y="347.9355">-metric: Metric</text><line style="stroke:#000000;stroke-width:0.3;" x1="245.802" x2="445.002" y1="353.5875" y2="353.5875"/><text fill="#000000" font-family="Arial Unicode MS" font-size="12" font-style="italic" lengthAdjust="spacing" textLength="137.4" x="248.802" y="368.8137">+add(other: Value): Value</text><text fill="#000000" font-family="Arial Unicode MS" font-size="12" font-style="italic" lengthAdjust="spacing" textLength="140.4" x="248.802" y="384.8918">+max(other: Value): Value</text><text fill="#000000" font-family="Arial Unicode MS" font-size="12" font-style="italic" lengthAdjust="spacing" textLength="156.6" x="248.802" y="400.9699">+delta(other: Value): Fraction</text><text fill="#000000" font-family="Arial Unicode MS" font-size="12" font-style="italic" lengthAdjust="spacing" textLength="193.2" x="248.802" y="417.048">+isBelowThreshold(double): boolean</text><text fill="#000000" font-family="Arial Unicode MS" font-size="12" font-style="italic" lengthAdjust="spacing" textLength="93.6" x="248.802" y="433.1262">+String serialize()</text></g><!--class CyclomaticComplexity--><g id="elem_CyclomaticComplexity"><rect codeLine="84" fill="#FFE4B5" height="47.7563" id="CyclomaticComplexity" rx="1.5" ry="1.5" style="stroke:#000000;stroke-width:0.3;" width="212.4" x="259.002" y="29.2313"/><text fill="#000000" font-family="Arial Unicode MS" font-size="12" lengthAdjust="spacing" textLength="117" x="306.702" y="45.0574">CyclomaticComplexity</text><line style="stroke:#000000;stroke-width:0.3;" x1="259.602" x2="470.802" y1="51.3094" y2="51.3094"/><line style="stroke:#000000;stroke-width:0.3;" x1="259.602" x2="470.802" y1="56.1094" y2="56.1094"/><text fill="#000000" font-family="Arial Unicode MS" font-size="12" lengthAdjust="spacing" textLength="205.2" x="262.602" y="71.3355">#create(integer: Integer): IntegerValue</text></g><!--class LinesOfCode--><g id="elem_LinesOfCode"><rect codeLine="88" fill="#FFE4B5" height="47.7563" id="LinesOfCode" rx="1.5" ry="1.5" style="stroke:#000000;stroke-width:0.3;" width="212.4" x="25.602" y="29.2313"/><text fill="#000000" font-family="Arial Unicode MS" font-size="12" lengthAdjust="spacing" textLength="69.6" x="97.002" y="45.0574">LinesOfCode</text><line style="stroke:#000000;stroke-width:0.3;" x1="26.202" x2="237.402" y1="51.3094" y2="51.3094"/><line style="stroke:#000000;stroke-width:0.3;" x1="26.202" x2="237.402" y1="56.1094" y2="56.1094"/><text fill="#000000" font-family="Arial Unicode MS" font-size="12" lengthAdjust="spacing" textLength="205.2" x="29.202" y="71.3355">#create(integer: Integer): IntegerValue</text></g><!--class Coverage--><g id="elem_Coverage"><rect codeLine="92" fill="#FFE4B5" height="160.3031" id="Coverage" rx="1.5" ry="1.5" style="stroke:#000000;stroke-width:0.3;" width="200.4" x="259.002" y="113.8313"/><text fill="#000000" font-family="Arial Unicode MS" font-size="12" lengthAdjust="spacing" textLength="51.6" x="333.402" y="129.6574">Coverage</text><line style="stroke:#000000;stroke-width:0.3;" x1="259.602" x2="458.802" y1="135.9094" y2="135.9094"/><text fill="#000000" font-family="Arial Unicode MS" font-size="12" lengthAdjust="spacing" textLength="91.8" x="262.602" y="151.1355">-covered: Integer</text><text fill="#000000" font-family="Arial Unicode MS" font-size="12" lengthAdjust="spacing" textLength="87" x="262.602" y="167.2137">-missed: Integer</text><line style="stroke:#000000;stroke-width:0.3;" x1="259.602" x2="458.802" y1="172.8656" y2="172.8656"/><text fill="#000000" font-family="Arial Unicode MS" font-size="12" lengthAdjust="spacing" textLength="92.4" x="262.602" y="188.0918">+isSet(): Boolean</text><text fill="#000000" font-family="Arial Unicode MS" font-size="12" lengthAdjust="spacing" textLength="137.4" x="262.602" y="204.1699">+add(other: Value): Value</text><text fill="#000000" font-family="Arial Unicode MS" font-size="12" lengthAdjust="spacing" textLength="140.4" x="262.602" y="220.248">+max(other: Value): Value</text><text fill="#000000" font-family="Arial Unicode MS" font-size="12" lengthAdjust="spacing" textLength="156.6" x="262.602" y="236.3262">+delta(other: Value): Fraction</text><text fill="#000000" font-family="Arial Unicode MS" font-size="12" lengthAdjust="spacing" textLength="193.2" x="262.602" y="252.4043">+isBelowThreshold(double): boolean</text><text fill="#000000" font-family="Arial Unicode MS" font-size="12" lengthAdjust="spacing" textLength="93.6" x="262.602" y="268.4824">+String serialize()</text></g><!--class FractionValue--><g id="elem_FractionValue"><rect codeLine="103" fill="#FFE4B5" height="128.1469" id="FractionValue" rx="1.5" ry="1.5" style="stroke:#000000;stroke-width:0.3;" width="200.4" x="480.402" y="129.7313"/><text fill="#000000" font-family="Arial Unicode MS" font-size="12" lengthAdjust="spacing" textLength="73.2" x="544.002" y="145.5574">FractionValue</text><line style="stroke:#000000;stroke-width:0.3;" x1="481.002" x2="680.202" y1="151.8094" y2="151.8094"/><text fill="#000000" font-family="Arial Unicode MS" font-size="12" lengthAdjust="spacing" textLength="94.2" x="484.002" y="167.0355">-fraction: Fraction</text><line style="stroke:#000000;stroke-width:0.3;" x1="481.002" x2="680.202" y1="172.6875" y2="172.6875"/><text fill="#000000" font-family="Arial Unicode MS" font-size="12" lengthAdjust="spacing" textLength="137.4" x="484.002" y="187.9137">+add(other: Value): Value</text><text fill="#000000" font-family="Arial Unicode MS" font-size="12" lengthAdjust="spacing" textLength="140.4" x="484.002" y="203.9918">+max(other: Value): Value</text><text fill="#000000" font-family="Arial Unicode MS" font-size="12" lengthAdjust="spacing" textLength="156.6" x="484.002" y="220.0699">+delta(other: Value): Fraction</text><text fill="#000000" font-family="Arial Unicode MS" font-size="12" lengthAdjust="spacing" textLength="193.2" x="484.002" y="236.148">+isBelowThreshold(double): boolean</text><text fill="#000000" font-family="Arial Unicode MS" font-size="12" lengthAdjust="spacing" textLength="93.6" x="484.002" y="252.2262">+String serialize()</text></g><!--class IntegerValue--><g id="elem_IntegerValue"><rect codeLine="112" fill="#FFE4B5" height="144.225" id="IntegerValue" rx="1.5" ry="1.5" style="stroke:#000000;stroke-width:0.3;" width="212.4" x="25.602" y="121.9312"/><text fill="#000000" font-family="Arial Unicode MS" font-size="12" font-style="italic" lengthAdjust="spacing" textLength="67.8" x="97.902" y="137.7574">IntegerValue</text><line style="stroke:#000000;stroke-width:0.3;" x1="26.202" x2="237.402" y1="144.0094" y2="144.0094"/><text fill="#000000" font-family="Arial Unicode MS" font-size="12" lengthAdjust="spacing" textLength="85.8" x="29.202" y="159.2355">-integer: Integer</text><line style="stroke:#000000;stroke-width:0.3;" x1="26.202" x2="237.402" y1="164.8875" y2="164.8875"/><text fill="#000000" font-family="Arial Unicode MS" font-size="12" lengthAdjust="spacing" textLength="137.4" x="29.202" y="180.1137">+add(other: Value): Value</text><text fill="#000000" font-family="Arial Unicode MS" font-size="12" lengthAdjust="spacing" textLength="140.4" x="29.202" y="196.1918">+max(other: Value): Value</text><text fill="#000000" font-family="Arial Unicode MS" font-size="12" lengthAdjust="spacing" textLength="156.6" x="29.202" y="212.2699">+delta(other: Value): Fraction</text><text fill="#000000" font-family="Arial Unicode MS" font-size="12" lengthAdjust="spacing" textLength="193.2" x="29.202" y="228.348">+isBelowThreshold(double): boolean</text><text fill="#000000" font-family="Arial Unicode MS" font-size="12" lengthAdjust="spacing" textLength="93.6" x="29.202" y="244.4262">+String serialize()</text><text fill="#000000" font-family="Arial Unicode MS" font-size="12" font-style="italic" lengthAdjust="spacing" textLength="205.2" x="29.202" y="260.5043">#create(integer: Integer): IntegerValue</text></g><!--class Mutation--><g id="elem_Mutation"><rect codeLine="122" fill="#F0F0F0" height="128.1469" id="Mutation" rx="1.5" ry="1.5" style="stroke:#000000;stroke-width:0.3;" width="157.8" x="48.102" y="475.6312"/><text fill="#000000" font-family="Arial Unicode MS" font-size="12" lengthAdjust="spacing" textLength="46.2" x="103.902" y="491.4574">Mutation</text><line style="stroke:#000000;stroke-width:0.3;" x1="48.702" x2="205.302" y1="497.7094" y2="497.7094"/><line style="stroke:#000000;stroke-width:0.3;" x1="48.702" x2="205.302" y1="502.5094" y2="502.5094"/><text fill="#000000" font-family="Arial Unicode MS" font-size="12" lengthAdjust="spacing" textLength="117.6" x="51.702" y="517.7355">+boolean isDetected()</text><text fill="#000000" font-family="Arial Unicode MS" font-size="12" lengthAdjust="spacing" textLength="150.6" x="51.702" y="533.8137">+MutationStatus getStatus()</text><text fill="#000000" font-family="Arial Unicode MS" font-size="12" lengthAdjust="spacing" textLength="113.4" x="51.702" y="549.8918">+int getLineNumber()</text><text fill="#000000" font-family="Arial Unicode MS" font-size="12" lengthAdjust="spacing" textLength="118.8" x="51.702" y="565.9699">+Mutator getMutator()</text><text fill="#000000" font-family="Arial Unicode MS" font-size="12" lengthAdjust="spacing" textLength="121.2" x="51.702" y="582.048">+String getKillingTest()</text><text fill="#000000" font-family="Arial Unicode MS" font-size="12" lengthAdjust="spacing" textLength="97.8" x="51.702" y="598.1262">+boolean isKilled()</text></g><!--class CoberturaParser--><g id="elem_CoberturaParser"><rect codeLine="27" fill="#F0F0F0" height="47.7563" id="CoberturaParser" rx="1.5" ry="1.5" style="stroke:#000000;stroke-width:0.3;" width="184.8" x="40.002" y="742.0313"/><text fill="#000000" font-family="Arial Unicode MS" font-size="12" lengthAdjust="spacing" textLength="88.8" x="88.002" y="757.8574">CoberturaParser</text><line style="stroke:#000000;stroke-width:0.3;" x1="40.602" x2="224.202" y1="764.1094" y2="764.1094"/><line style="stroke:#000000;stroke-width:0.3;" x1="40.602" x2="224.202" y1="768.9094" y2="768.9094"/><text fill="#000000" font-family="Arial Unicode MS" font-size="12" lengthAdjust="spacing" textLength="177.6" x="43.602" y="784.1355">+parse(reader, log): ModuleNode</text></g><!--class JacocoParser--><g id="elem_JacocoParser"><rect codeLine="31" fill="#F0F0F0" height="47.7563" id="JacocoParser" rx="1.5" ry="1.5" style="stroke:#000000;stroke-width:0.3;" width="184.8" x="245.802" y="742.0313"/><text fill="#000000" font-family="Arial Unicode MS" font-size="12" lengthAdjust="spacing" textLength="73.2" x="301.602" y="757.8574">JacocoParser</text><line style="stroke:#000000;stroke-width:0.3;" x1="246.402" x2="430.002" y1="764.1094" y2="764.1094"/><line style="stroke:#000000;stroke-width:0.3;" x1="246.402" x2="430.002" y1="768.9094" y2="768.9094"/><text fill="#000000" font-family="Arial Unicode MS" font-size="12" lengthAdjust="spacing" textLength="177.6" x="249.402" y="784.1355">+parse(reader, log): ModuleNode</text></g><!--class PitestParser--><g id="elem_PitestParser"><rect codeLine="35" fill="#F0F0F0" height="47.7563" id="PitestParser" rx="1.5" ry="1.5" style="stroke:#000000;stroke-width:0.3;" width="184.8" x="451.602" y="742.0313"/><text fill="#000000" font-family="Arial Unicode MS" font-size="12" lengthAdjust="spacing" textLength="65.4" x="511.302" y="757.8574">PitestParser</text><line style="stroke:#000000;stroke-width:0.3;" x1="452.202" x2="635.802" y1="764.1094" y2="764.1094"/><line style="stroke:#000000;stroke-width:0.3;" x1="452.202" x2="635.802" y1="768.9094" y2="768.9094"/><text fill="#000000" font-family="Arial Unicode MS" font-size="12" lengthAdjust="spacing" textLength="177.6" x="455.202" y="784.1355">+parse(reader, log): ModuleNode</text></g><!--link LinesOfCode to IntegerValue--><g id="link_LinesOfCode_IntegerValue"><path codeLine="131" d="M131.802,77.4953 C131.802,86.5253 131.802,97.4153 131.802,108.8633 " fill="none" id="LinesOfCode-to-IntegerValue" style="stroke:#000000;stroke-width:1.2;"/><polygon fill="none" points="136.002,108.7852,131.802,120.7852,127.602,108.7852,136.002,108.7852" style="stroke:#000000;stroke-width:1.2;"/></g><!--link CyclomaticComplexity to IntegerValue--><g id="link_CyclomaticComplexity_IntegerValue"><path codeLine="132" d="M316.068,77.5013 C295.038,88.0612 270.396,100.9912 248.802,113.8313 C248.136,114.2273 247.464,114.6292 246.792,115.0313 " fill="none" id="CyclomaticComplexity-to-IntegerValue" style="stroke:#000000;stroke-width:1.2;"/><polygon fill="none" points="249.054,118.5713,236.622,121.2352,244.674,111.4013,249.054,118.5713" style="stroke:#000000;stroke-width:1.2;"/></g><!--link Coverage to Value--><g id="link_Coverage_Value"><path codeLine="134" d="M353.088,274.1333 C352.482,282.0473 351.864,290.0693 351.258,297.9473 " fill="none" id="Coverage-to-Value" style="stroke:#000000;stroke-width:1.2;"/><polygon fill="none" points="355.464,298.0493,350.358,309.6953,347.088,297.4073,355.464,298.0493" style="stroke:#000000;stroke-width:1.2;"/></g><!--link FractionValue to Value--><g id="link_FractionValue_Value"><path codeLine="135" d="M497.016,258.3953 C478.272,272.7173 458.262,288.0053 439.134,302.6213 " fill="none" id="FractionValue-to-Value" style="stroke:#000000;stroke-width:1.2;"/><polygon fill="none" points="441.72,305.9272,429.636,309.8753,436.62,299.2492,441.72,305.9272" style="stroke:#000000;stroke-width:1.2;"/></g><!--link IntegerValue to Value--><g id="link_IntegerValue_Value"><path codeLine="136" d="M216.99,266.2013 C231.114,278.0813 245.76,290.4052 259.896,302.2913 " fill="none" id="IntegerValue-to-Value" style="stroke:#000000;stroke-width:1.2;"/><polygon fill="none" points="262.41,298.9193,268.884,309.8573,256.998,305.3453,262.41,298.9193" style="stroke:#000000;stroke-width:1.2;"/></g><!--reverse link Node to MethodNode--><g id="link_Node_MethodNode"><path codeLine="138" d="M652.146,386.4112 C724.296,399.8453 838.548,427.0373 926.802,475.6312 C938.562,482.1052 950.046,490.7993 960.264,499.6733 " fill="none" id="Node-backto-MethodNode" style="stroke:#000000;stroke-width:1.2;"/><polygon fill="none" points="651.576,390.5753,640.518,384.2993,653.076,382.3133,651.576,390.5753" style="stroke:#000000;stroke-width:1.2;"/></g><!--reverse link Node to ClassNode--><g id="link_Node_ClassNode"><path codeLine="139" d="M651.27,401.6272 C693.924,419.4112 748.806,445.1873 793.002,475.6312 C809.658,487.1033 826.116,502.7693 838.5,515.6813 " fill="none" id="Node-backto-ClassNode" style="stroke:#000000;stroke-width:1.2;"/><polygon fill="none" points="649.92,405.6113,640.416,397.1693,653.112,397.8413,649.92,405.6113" style="stroke:#000000;stroke-width:1.2;"/></g><!--reverse link Node to PackageNode--><g id="link_Node_PackageNode"><path codeLine="140" d="M623.022,424.7152 C645.246,451.6793 672.114,484.2832 691.494,507.7972 " fill="none" id="Node-backto-PackageNode" style="stroke:#000000;stroke-width:1.2;"/><polygon fill="none" points="619.878,427.5053,615.486,415.5773,626.358,422.1652,619.878,427.5053" style="stroke:#000000;stroke-width:1.2;"/></g><!--reverse link Node to ModuleNode--><g id="link_Node_ModuleNode"><path codeLine="141" d="M578.196,427.6133 C576.312,451.0252 574.122,478.1813 572.376,499.8473 " fill="none" id="Node-backto-ModuleNode" style="stroke:#000000;stroke-width:1.2;"/><polygon fill="none" points="574.002,427.4033,579.15,415.7813,582.372,428.0753,574.002,427.4033" style="stroke:#000000;stroke-width:1.2;"/></g><!--reverse link Node to ContainerNode--><g id="link_Node_ContainerNode"><path codeLine="142" d="M533.856,423.7973 C503.496,454.0493 465.732,491.6753 441.738,515.5793 " fill="none" id="Node-backto-ContainerNode" style="stroke:#000000;stroke-width:1.2;"/><polygon fill="none" points="530.706,421.0073,542.172,415.5172,536.634,426.9593,530.706,421.0073" style="stroke:#000000;stroke-width:1.2;"/></g><!--reverse link Node to FileNode--><g id="link_Node_FileNode"><path codeLine="143" d="M513.66,412.6672 C495.33,421.8953 475.344,431.3332 456.402,439.0313 C406.164,459.4492 386.172,447.1853 340.002,475.6312 C323.028,486.0892 307.41,502.2413 296.124,515.6513 " fill="none" id="Node-backto-FileNode" style="stroke:#000000;stroke-width:1.2;"/><polygon fill="none" points="511.728,408.9353,524.328,407.2253,515.544,416.4233,511.728,408.9353" style="stroke:#000000;stroke-width:1.2;"/></g><!--reverse link CoverageParser to PitestParser--><g id="link_CoverageParser_PitestParser"><path codeLine="145" d="M340.854,683.7353 C373.584,690.9232 409.446,700.3013 441.402,712.0313 C462.984,719.9513 485.79,731.4713 504.402,741.7852 " fill="none" id="CoverageParser-backto-PitestParser" style="stroke:#000000;stroke-width:1.2;"/><polygon fill="none" points="339.984,687.8453,329.13,681.2273,341.742,679.6313,339.984,687.8453" style="stroke:#000000;stroke-width:1.2;"/></g><!--reverse link CoverageParser to JacocoParser--><g id="link_CoverageParser_JacocoParser"><path codeLine="146" d="M268.704,697.5593 C283.422,711.9292 300.432,728.5433 313.944,741.7373 " fill="none" id="CoverageParser-backto-JacocoParser" style="stroke:#000000;stroke-width:1.2;"/><polygon fill="none" points="265.956,700.7453,260.304,689.3573,271.824,694.7393,265.956,700.7453" style="stroke:#000000;stroke-width:1.2;"/></g><!--reverse link CoverageParser to CoberturaParser--><g id="link_CoverageParser_CoberturaParser"><path codeLine="147" d="M202.308,697.5593 C187.506,711.9292 170.394,728.5433 156.804,741.7373 " fill="none" id="CoverageParser-backto-CoberturaParser" style="stroke:#000000;stroke-width:1.2;"/><polygon fill="none" points="199.218,694.7032,210.756,689.3573,205.068,700.7273,199.218,694.7032" style="stroke:#000000;stroke-width:1.2;"/></g><!--reverse link Node to Node--><g id="link_Node_Node"><path codeLine="149" d="M647.91,361.6552 C655.482,364.0913 660.402,368.4892 660.402,374.8313 C660.402,383.2913 651.654,388.2832 639.54,389.8013 " fill="none" id="Node-backto-Node" style="stroke:#000000;stroke-width:1.2;"/><polygon fill="none" points="640.428,360.0533,643.4476,363.152,647.4693,361.5565,644.4497,358.4577,640.428,360.0533" style="stroke:#000000;stroke-width:1.2;"/><text fill="#000000" font-family="sans-serif" font-size="12" lengthAdjust="spacing" textLength="46.8" x="664.002" y="379.5328">children</text></g><!--link Mutation to FileNode--><g id="link_Mutation_FileNode"><path codeLine="151" d="M206.148,539.8313 C210.216,539.8313 214.284,539.8313 218.352,539.8313 " fill="none" id="Mutation-to-FileNode" style="stroke:#000000;stroke-width:1.2;"/><polygon fill="none" points="226.068,539.8313,222.468,537.4313,218.868,539.8313,222.468,542.2312,226.068,539.8313" style="stroke:#000000;stroke-width:1.2;"/></g><!--link Value to Node--><g id="link_Value_Node"><path codeLine="152" d="M445.74,374.8313 C469.704,374.8313 494.682,374.8313 516.624,374.8313 " fill="none" id="Value-to-Node" style="stroke:#000000;stroke-width:1.2;"/><polygon fill="none" points="524.286,374.8313,520.686,372.4313,517.086,374.8313,520.686,377.2313,524.286,374.8313" style="stroke:#000000;stroke-width:1.2;"/><text fill="#000000" font-family="sans-serif" font-size="12" lengthAdjust="spacing" textLength="36" x="456.702" y="370.2328">values</text></g><!--link Value to CoverageParser--><!--SRC=[pLPHJzim47xFhx3WfLKNLA4zLQWIT49Y0uRKRI_R7bpxsbXruiXs60puxpixQMA7g8pj1LLghFlkpdVtdS_E10V2X6OIaiojZGKDojwNa2HcAugIQfeJ9ganv24Xv8ooxKQhgk0B9PKcX-kf-pb4QGwwaTAf-ptNFpcvLXpCV4wOqeKHSZkayutAoYlbYZ5gHD5plv9eWR9JhTMlM7Ik2djDSt2We99yBGJ37SdLiW6NuZUGusdor4-l0z_teLDhjLXL5YwOAhpED53XiAQLjA7p07qMOm_waWcsBG3BUvma9IhG3JAYRa6x1JNa07XrbEL76LqNe8zsq07IGLV6Qifimy-YWMweDg0Hdv27dSfJwOGZ3HIh-8v8jHdFo9NYbGJ729OZgPruFNsqK2lGjj8qSFPA5nyfKqpzk_sDi63ig-nx1N5YqhNSGvAI791AXdR-Ys2vdSzHNc3Fp8Zld4OMLGyPAUz7k5ySwG8vfm9fURRJfBM8T3hJBl1UX4PLce6PaKjXxCaImomsyy1VaF64c58AB97l6ZCQT-uRsK1S6q03cpbNjVF0Ts0L9Ed-zoMumuFam6QA3oGdiH3NLOwzDICNXOKDQ9Uos1GKcmq6GkfSTUxFXOGz0UtWWOxmauK44-PvJqIyKyv7ocOkN6yoRhwHKaxlNbRY82tjgvqxIAWYqXJc3AGR31fCfYGVSLMjf5DVAIM1njfrmGYU4HntE7x29bZSCwboQWLRgBoKS2ViVPpy8M5udYoCH4r6oyguNTMfj3ulaK7pURseo_zVhdRpgi-77t70mmx9XJ6XP4A4MO9rR9-rHTb3rXwANYBcR-ZOHyBErM3hhHimsl6jvT4xGo6P_NpwtB-rR0w3a_FQThsgB7Mx-rdJx89nV00Bp097xvDMPucVohXPMwyyY3ivoMKx0piJV1qWqYozk0aUfP-4nB6v-OANeKUwhHtYDyOOOrOUqwfCmxCwY0_DXoI9LPep6akZdewXg7P9FQKVqpISuvsmkpewMNW71URThHUOHrTh9sylWAJt9FBemFDYdrxuZDcdrtinDRchr3yPPeHbGd8DHPAqjvTA9QnjsZPDKyXKrG-N6RdrH-k7tG7VyOdEeVYPfhstNe8Ty0S0]--></g></svg>
