<?xml version="1.0" encoding="us-ascii" standalone="no"?>
<svg xmlns="http://www.w3.org/2000/svg" contentStyleType="text/css" height="985.8px" preserveAspectRatio="none"
     style="width:1296px;height:985px;background:#FFFFFF;" version="1.1" viewBox="0 0 1296 985" width="1296px"
     zoomAndPan="magnify"><defs/><g><!--cluster coverage--><g id="cluster_coverage"><path d="M19.782,4.752 L151.182,4.752 A2.25,2.25 0 0 1 152.682,6.252 L156.882,24.4301 L1070.982,24.4301 A1.5,1.5 0 0 1 1072.482,25.9301 L1072.482,980.652 A1.5,1.5 0 0 1 1070.982,982.152 L19.782,982.152 A1.5,1.5 0 0 1 18.282,980.652 L18.282,6.252 A1.5,1.5 0 0 1 19.782,4.752 " fill="none" style="stroke:#000000;stroke-width:0.8999999999999999;"/><line style="stroke:#000000;stroke-width:0.8999999999999999;" x1="18.282" x2="156.882" y1="24.4301" y2="24.4301"/><text fill="#000000" font-family="Arial Unicode MS" font-size="12" font-weight="bold" lengthAdjust="spacing" textLength="130.8" x="20.682" y="18.7781">edu.hm.hafner.coverage</text></g><!--cluster parser--><g id="cluster_parser"><path d="M34.182,751.152 L74.382,751.152 A2.25,2.25 0 0 1 75.882,752.652 L80.082,768.8848 L646.782,768.8848 A1.5,1.5 0 0 1 648.282,770.3848 L648.282,848.052 A1.5,1.5 0 0 1 646.782,849.552 L34.182,849.552 A1.5,1.5 0 0 1 32.682,848.052 L32.682,752.652 A1.5,1.5 0 0 1 34.182,751.152 " fill="#FFA07A" style="stroke:#000000;stroke-width:0.8999999999999999;"/><line style="stroke:#000000;stroke-width:0.8999999999999999;" x1="32.682" x2="80.082" y1="768.8848" y2="768.8848"/><text fill="#000000" font-family="sans-serif" font-size="12" font-weight="bold" lengthAdjust="spacing" textLength="39.6" x="35.082" y="763.9535">parser</text></g><!--cluster registry--><g id="cluster_registry"><path d="M232.182,869.352 L281.382,869.352 A2.25,2.25 0 0 1 282.882,870.852 L287.082,887.0848 L448.782,887.0848 A1.5,1.5 0 0 1 450.282,888.5848 L450.282,966.252 A1.5,1.5 0 0 1 448.782,967.752 L232.182,967.752 A1.5,1.5 0 0 1 230.682,966.252 L230.682,870.852 A1.5,1.5 0 0 1 232.182,869.352 " fill="none" style="stroke:#000000;stroke-width:0.8999999999999999;"/><line style="stroke:#000000;stroke-width:0.8999999999999999;" x1="230.682" x2="287.082" y1="887.0848" y2="887.0848"/><text fill="#000000" font-family="sans-serif" font-size="12" font-weight="bold" lengthAdjust="spacing" textLength="48.6" x="233.082" y="882.1535">registry</text></g><!--class CoverageParser--><g id="elem_CoverageParser"><rect codeLine="55" fill="#F0F0F0" height="47.7563" id="CoverageParser" rx="1.5" ry="1.5" style="stroke:#000000;stroke-width:0.3;" width="184.8" x="145.482" y="674.952"/><text fill="#000000" font-family="Arial Unicode MS" font-size="12" font-style="italic" lengthAdjust="spacing" textLength="87" x="194.382" y="690.7781">CoverageParser</text><line style="stroke:#000000;stroke-width:0.3;" x1="146.082" x2="329.682" y1="697.0301" y2="697.0301"/><line style="stroke:#000000;stroke-width:0.3;" x1="146.082" x2="329.682" y1="701.8301" y2="701.8301"/><text fill="#000000" font-family="Arial Unicode MS" font-size="12" font-style="italic" lengthAdjust="spacing" textLength="177.6" x="149.082" y="717.0563">+parse(reader, log): ModuleNode</text></g><!--class Node--><g id="elem_Node"><rect codeLine="59" fill="#FFF8DC" height="79.9125" id="Node" rx="1.5" ry="1.5" style="stroke:#000000;stroke-width:0.3;" width="114" x="733.482" y="369.252"/><text fill="#000000" font-family="Arial Unicode MS" font-size="12" font-style="italic" lengthAdjust="spacing" textLength="28.2" x="776.382" y="385.0781">Node</text><line style="stroke:#000000;stroke-width:0.3;" x1="734.082" x2="846.882" y1="391.3301" y2="391.3301"/><text fill="#000000" font-family="Arial Unicode MS" font-size="12" lengthAdjust="spacing" textLength="106.8" x="737.082" y="406.5563">-metric: Metric &#171;pk&#187;</text><text fill="#000000" font-family="Arial Unicode MS" font-size="12" lengthAdjust="spacing" textLength="102.6" x="737.082" y="422.6344">-name: Name &#171;pk&#187;</text><line style="stroke:#000000;stroke-width:0.3;" x1="734.082" x2="846.882" y1="428.2863" y2="428.2863"/><text fill="#000000" font-family="Arial Unicode MS" font-size="12" font-style="italic" lengthAdjust="spacing" textLength="76.2" x="737.082" y="443.5125">+copy(): Node</text></g><!--class ContainerNode--><g id="elem_ContainerNode"><rect codeLine="66" fill="#FFF8DC" height="47.7563" id="ContainerNode" rx="1.5" ry="1.5" style="stroke:#000000;stroke-width:0.3;" width="135" x="352.782" y="550.152"/><text fill="#000000" font-family="Arial Unicode MS" font-size="12" lengthAdjust="spacing" textLength="79.8" x="380.382" y="565.9781">ContainerNode</text><line style="stroke:#000000;stroke-width:0.3;" x1="353.382" x2="487.182" y1="572.2301" y2="572.2301"/><line style="stroke:#000000;stroke-width:0.3;" x1="353.382" x2="487.182" y1="577.0301" y2="577.0301"/><text fill="#000000" font-family="Arial Unicode MS" font-size="12" lengthAdjust="spacing" textLength="127.8" x="356.382" y="592.2563">+copy(): ContainerNode</text></g><!--class ModuleNode--><g id="elem_ModuleNode"><rect codeLine="70" fill="#FFF8DC" height="79.9125" id="ModuleNode" rx="1.5" ry="1.5" style="stroke:#000000;stroke-width:0.3;" width="124.8" x="509.082" y="534.252"/><text fill="#000000" font-family="Arial Unicode MS" font-size="12" lengthAdjust="spacing" textLength="67.2" x="537.882" y="550.0781">ModuleNode</text><line style="stroke:#000000;stroke-width:0.3;" x1="509.682" x2="633.282" y1="556.3301" y2="556.3301"/><text fill="#000000" font-family="Arial Unicode MS" font-size="12" lengthAdjust="spacing" textLength="117.6" x="512.682" y="571.5563">-sources: List&lt;String&gt;</text><line style="stroke:#000000;stroke-width:0.3;" x1="509.682" x2="633.282" y1="577.2082" y2="577.2082"/><text fill="#000000" font-family="Arial Unicode MS" font-size="12" lengthAdjust="spacing" textLength="115.2" x="512.682" y="592.4344">+copy(): ModuleNode</text><text fill="#000000" font-family="Arial Unicode MS" font-size="12" lengthAdjust="spacing" textLength="88.8" x="512.682" y="608.5125">+splitPackages()</text></g><!--class PackageNode--><g id="elem_PackageNode"><rect codeLine="76" fill="#FFF8DC" height="63.8344" id="PackageNode" rx="1.5" ry="1.5" style="stroke:#000000;stroke-width:0.3;" width="129.6" x="654.882" y="542.352"/><text fill="#000000" font-family="Arial Unicode MS" font-size="12" lengthAdjust="spacing" textLength="74.4" x="682.482" y="558.1781">PackageNode</text><line style="stroke:#000000;stroke-width:0.3;" x1="655.482" x2="783.882" y1="564.4301" y2="564.4301"/><line style="stroke:#000000;stroke-width:0.3;" x1="655.482" x2="783.882" y1="569.2301" y2="569.2301"/><text fill="#000000" font-family="Arial Unicode MS" font-size="12" lengthAdjust="spacing" textLength="95.4" x="658.482" y="584.4563">+getPath(): String</text><text fill="#000000" font-family="Arial Unicode MS" font-size="12" lengthAdjust="spacing" textLength="122.4" x="658.482" y="600.5344">+copy(): PackageNode</text></g><!--class ClassNode--><g id="elem_ClassNode"><rect codeLine="81" fill="#FFF8DC" height="47.7563" id="ClassNode" rx="1.5" ry="1.5" style="stroke:#000000;stroke-width:0.3;" width="112.8" x="805.482" y="550.152"/><text fill="#000000" font-family="Arial Unicode MS" font-size="12" lengthAdjust="spacing" textLength="57.6" x="833.082" y="565.9781">ClassNode</text><line style="stroke:#000000;stroke-width:0.3;" x1="806.082" x2="917.682" y1="572.2301" y2="572.2301"/><line style="stroke:#000000;stroke-width:0.3;" x1="806.082" x2="917.682" y1="577.0301" y2="577.0301"/><text fill="#000000" font-family="Arial Unicode MS" font-size="12" lengthAdjust="spacing" textLength="105.6" x="809.082" y="592.2563">+copy(): ClassNode</text></g><!--class MethodNode--><g id="elem_MethodNode"><rect codeLine="85" fill="#FFF8DC" height="79.9125" id="MethodNode" rx="1.5" ry="1.5" style="stroke:#000000;stroke-width:0.3;" width="123.6" x="939.282" y="534.252"/><text fill="#000000" font-family="Arial Unicode MS" font-size="12" lengthAdjust="spacing" textLength="68.4" x="966.882" y="550.0781">MethodNode</text><line style="stroke:#000000;stroke-width:0.3;" x1="939.882" x2="1062.282" y1="556.3301" y2="556.3301"/><text fill="#000000" font-family="Arial Unicode MS" font-size="12" lengthAdjust="spacing" textLength="109.8" x="942.882" y="571.5563">-lineNumber: Integer</text><text fill="#000000" font-family="Arial Unicode MS" font-size="12" lengthAdjust="spacing" textLength="91.8" x="942.882" y="587.6344">-signature: String</text><line style="stroke:#000000;stroke-width:0.3;" x1="939.882" x2="1062.282" y1="593.2863" y2="593.2863"/><text fill="#000000" font-family="Arial Unicode MS" font-size="12" lengthAdjust="spacing" textLength="116.4" x="942.882" y="608.5125">+copy(): MethodNode</text></g><!--class FileNode--><g id="elem_FileNode"><rect codeLine="91" fill="#FFF8DC" height="47.7563" id="FileNode" rx="1.5" ry="1.5" style="stroke:#000000;stroke-width:0.3;" width="102" x="229.482" y="550.152"/><text fill="#000000" font-family="Arial Unicode MS" font-size="12" lengthAdjust="spacing" textLength="46.8" x="257.082" y="565.9781">FileNode</text><line style="stroke:#000000;stroke-width:0.3;" x1="230.082" x2="330.882" y1="572.2301" y2="572.2301"/><line style="stroke:#000000;stroke-width:0.3;" x1="230.082" x2="330.882" y1="577.0301" y2="577.0301"/><text fill="#000000" font-family="Arial Unicode MS" font-size="12" lengthAdjust="spacing" textLength="94.8" x="233.082" y="592.2563">+copy(): FileNode</text></g><!--class Value--><g id="elem_Value"><rect codeLine="95" fill="#FFE4B5" height="128.1469" id="Value" rx="1.5" ry="1.5" style="stroke:#000000;stroke-width:0.3;" width="200.4" x="453.282" y="344.952"/><text fill="#000000" font-family="Arial Unicode MS" font-size="12" font-style="italic" lengthAdjust="spacing" textLength="30" x="538.482" y="360.7781">Value</text><line style="stroke:#000000;stroke-width:0.3;" x1="453.882" x2="653.082" y1="367.0301" y2="367.0301"/><text fill="#000000" font-family="Arial Unicode MS" font-size="12" lengthAdjust="spacing" textLength="77.4" x="456.882" y="382.2562">-metric: Metric</text><line style="stroke:#000000;stroke-width:0.3;" x1="453.882" x2="653.082" y1="387.9082" y2="387.9082"/><text fill="#000000" font-family="Arial Unicode MS" font-size="12" font-style="italic" lengthAdjust="spacing" textLength="137.4" x="456.882" y="403.1344">+add(other: Value): Value</text><text fill="#000000" font-family="Arial Unicode MS" font-size="12" font-style="italic" lengthAdjust="spacing" textLength="140.4" x="456.882" y="419.2125">+max(other: Value): Value</text><text fill="#000000" font-family="Arial Unicode MS" font-size="12" font-style="italic" lengthAdjust="spacing" textLength="156.6" x="456.882" y="435.2906">+delta(other: Value): Fraction</text><text fill="#000000" font-family="Arial Unicode MS" font-size="12" font-style="italic" lengthAdjust="spacing" textLength="193.2" x="456.882" y="451.3688">+isBelowThreshold(double): boolean</text><text fill="#000000" font-family="Arial Unicode MS" font-size="12" font-style="italic" lengthAdjust="spacing" textLength="97.2" x="456.882" y="467.4469">+serialize(): String</text></g><!--class CyclomaticComplexity--><g id="elem_CyclomaticComplexity"><rect codeLine="104" fill="#FFE4B5" height="47.7563" id="CyclomaticComplexity" rx="1.5" ry="1.5" style="stroke:#000000;stroke-width:0.3;" width="212.4" x="341.082" y="49.152"/><text fill="#000000" font-family="Arial Unicode MS" font-size="12" lengthAdjust="spacing" textLength="117" x="388.782" y="64.9781">CyclomaticComplexity</text><line style="stroke:#000000;stroke-width:0.3;" x1="341.682" x2="552.882" y1="71.2301" y2="71.2301"/><line style="stroke:#000000;stroke-width:0.3;" x1="341.682" x2="552.882" y1="76.0301" y2="76.0301"/><text fill="#000000" font-family="Arial Unicode MS" font-size="12" lengthAdjust="spacing" textLength="205.2" x="344.682" y="91.2563">#create(integer: Integer): IntegerValue</text></g><!--class LinesOfCode--><g id="elem_LinesOfCode"><rect codeLine="108" fill="#FFE4B5" height="47.7563" id="LinesOfCode" rx="1.5" ry="1.5" style="stroke:#000000;stroke-width:0.3;" width="212.4" x="107.682" y="49.152"/><text fill="#000000" font-family="Arial Unicode MS" font-size="12" lengthAdjust="spacing" textLength="69.6" x="179.082" y="64.9781">LinesOfCode</text><line style="stroke:#000000;stroke-width:0.3;" x1="108.282" x2="319.482" y1="71.2301" y2="71.2301"/><line style="stroke:#000000;stroke-width:0.3;" x1="108.282" x2="319.482" y1="76.0301" y2="76.0301"/><text fill="#000000" font-family="Arial Unicode MS" font-size="12" lengthAdjust="spacing" textLength="205.2" x="111.282" y="91.2563">#create(integer: Integer): IntegerValue</text></g><!--class Coverage--><g id="elem_Coverage"><rect codeLine="112" fill="#FFE4B5" height="160.3031" id="Coverage" rx="1.5" ry="1.5" style="stroke:#000000;stroke-width:0.3;" width="200.4" x="453.282" y="133.752"/><text fill="#000000" font-family="Arial Unicode MS" font-size="12" lengthAdjust="spacing" textLength="51.6" x="527.682" y="149.5781">Coverage</text><line style="stroke:#000000;stroke-width:0.3;" x1="453.882" x2="653.082" y1="155.8301" y2="155.8301"/><text fill="#000000" font-family="Arial Unicode MS" font-size="12" lengthAdjust="spacing" textLength="91.8" x="456.882" y="171.0563">-covered: Integer</text><text fill="#000000" font-family="Arial Unicode MS" font-size="12" lengthAdjust="spacing" textLength="87" x="456.882" y="187.1344">-missed: Integer</text><line style="stroke:#000000;stroke-width:0.3;" x1="453.882" x2="653.082" y1="192.7863" y2="192.7863"/><text fill="#000000" font-family="Arial Unicode MS" font-size="12" lengthAdjust="spacing" textLength="92.4" x="456.882" y="208.0125">+isSet(): Boolean</text><text fill="#000000" font-family="Arial Unicode MS" font-size="12" lengthAdjust="spacing" textLength="137.4" x="456.882" y="224.0906">+add(other: Value): Value</text><text fill="#000000" font-family="Arial Unicode MS" font-size="12" lengthAdjust="spacing" textLength="140.4" x="456.882" y="240.1688">+max(other: Value): Value</text><text fill="#000000" font-family="Arial Unicode MS" font-size="12" lengthAdjust="spacing" textLength="156.6" x="456.882" y="256.2469">+delta(other: Value): Fraction</text><text fill="#000000" font-family="Arial Unicode MS" font-size="12" lengthAdjust="spacing" textLength="193.2" x="456.882" y="272.325">+isBelowThreshold(double): boolean</text><text fill="#000000" font-family="Arial Unicode MS" font-size="12" lengthAdjust="spacing" textLength="97.2" x="456.882" y="288.4031">+serialize(): String</text></g><!--class FractionValue--><g id="elem_FractionValue"><rect codeLine="123" fill="#FFE4B5" height="128.1469" id="FractionValue" rx="1.5" ry="1.5" style="stroke:#000000;stroke-width:0.3;" width="200.4" x="674.682" y="149.652"/><text fill="#000000" font-family="Arial Unicode MS" font-size="12" lengthAdjust="spacing" textLength="73.2" x="738.282" y="165.4781">FractionValue</text><line style="stroke:#000000;stroke-width:0.3;" x1="675.282" x2="874.482" y1="171.7301" y2="171.7301"/><text fill="#000000" font-family="Arial Unicode MS" font-size="12" lengthAdjust="spacing" textLength="94.2" x="678.282" y="186.9562">-fraction: Fraction</text><line style="stroke:#000000;stroke-width:0.3;" x1="675.282" x2="874.482" y1="192.6082" y2="192.6082"/><text fill="#000000" font-family="Arial Unicode MS" font-size="12" lengthAdjust="spacing" textLength="137.4" x="678.282" y="207.8344">+add(other: Value): Value</text><text fill="#000000" font-family="Arial Unicode MS" font-size="12" lengthAdjust="spacing" textLength="140.4" x="678.282" y="223.9125">+max(other: Value): Value</text><text fill="#000000" font-family="Arial Unicode MS" font-size="12" lengthAdjust="spacing" textLength="156.6" x="678.282" y="239.9906">+delta(other: Value): Fraction</text><text fill="#000000" font-family="Arial Unicode MS" font-size="12" lengthAdjust="spacing" textLength="193.2" x="678.282" y="256.0687">+isBelowThreshold(double): boolean</text><text fill="#000000" font-family="Arial Unicode MS" font-size="12" lengthAdjust="spacing" textLength="97.2" x="678.282" y="272.1469">+serialize(): String</text></g><!--class IntegerValue--><g id="elem_IntegerValue"><rect codeLine="132" fill="#FFE4B5" height="144.225" id="IntegerValue" rx="1.5" ry="1.5" style="stroke:#000000;stroke-width:0.3;" width="212.4" x="219.882" y="141.852"/><text fill="#000000" font-family="Arial Unicode MS" font-size="12" font-style="italic" lengthAdjust="spacing" textLength="67.8" x="292.182" y="157.6781">IntegerValue</text><line style="stroke:#000000;stroke-width:0.3;" x1="220.482" x2="431.682" y1="163.9301" y2="163.9301"/><text fill="#000000" font-family="Arial Unicode MS" font-size="12" lengthAdjust="spacing" textLength="85.8" x="223.482" y="179.1563">-integer: Integer</text><line style="stroke:#000000;stroke-width:0.3;" x1="220.482" x2="431.682" y1="184.8082" y2="184.8082"/><text fill="#000000" font-family="Arial Unicode MS" font-size="12" lengthAdjust="spacing" textLength="137.4" x="223.482" y="200.0344">+add(other: Value): Value</text><text fill="#000000" font-family="Arial Unicode MS" font-size="12" lengthAdjust="spacing" textLength="140.4" x="223.482" y="216.1125">+max(other: Value): Value</text><text fill="#000000" font-family="Arial Unicode MS" font-size="12" lengthAdjust="spacing" textLength="156.6" x="223.482" y="232.1906">+delta(other: Value): Fraction</text><text fill="#000000" font-family="Arial Unicode MS" font-size="12" lengthAdjust="spacing" textLength="193.2" x="223.482" y="248.2687">+isBelowThreshold(double): boolean</text><text fill="#000000" font-family="Arial Unicode MS" font-size="12" lengthAdjust="spacing" textLength="97.2" x="223.482" y="264.3469">+serialize(): String</text><text fill="#000000" font-family="Arial Unicode MS" font-size="12" font-style="italic" lengthAdjust="spacing" textLength="205.2" x="223.482" y="280.425">#create(integer: Integer): IntegerValue</text></g><!--class Mutation--><g id="elem_Mutation"><rect codeLine="142" fill="#F0F0F0" height="128.1469" id="Mutation" rx="1.5" ry="1.5" style="stroke:#000000;stroke-width:0.3;" width="157.8" x="50.382" y="509.952"/><text fill="#000000" font-family="Arial Unicode MS" font-size="12" lengthAdjust="spacing" textLength="46.2" x="106.182" y="525.7781">Mutation</text><line style="stroke:#000000;stroke-width:0.3;" x1="50.982" x2="207.582" y1="532.0301" y2="532.0301"/><line style="stroke:#000000;stroke-width:0.3;" x1="50.982" x2="207.582" y1="536.8301" y2="536.8301"/><text fill="#000000" font-family="Arial Unicode MS" font-size="12" lengthAdjust="spacing" textLength="117.6" x="53.982" y="552.0563">+boolean isDetected()</text><text fill="#000000" font-family="Arial Unicode MS" font-size="12" lengthAdjust="spacing" textLength="150.6" x="53.982" y="568.1344">+MutationStatus getStatus()</text><text fill="#000000" font-family="Arial Unicode MS" font-size="12" lengthAdjust="spacing" textLength="113.4" x="53.982" y="584.2125">+int getLineNumber()</text><text fill="#000000" font-family="Arial Unicode MS" font-size="12" lengthAdjust="spacing" textLength="118.8" x="53.982" y="600.2906">+Mutator getMutator()</text><text fill="#000000" font-family="Arial Unicode MS" font-size="12" lengthAdjust="spacing" textLength="121.2" x="53.982" y="616.3688">+String getKillingTest()</text><text fill="#000000" font-family="Arial Unicode MS" font-size="12" lengthAdjust="spacing" textLength="97.8" x="53.982" y="632.4469">+boolean isKilled()</text></g><!--class CoberturaParser--><g id="elem_CoberturaParser"><rect codeLine="42" fill="#F0F0F0" height="47.7563" id="CoberturaParser" rx="1.5" ry="1.5" style="stroke:#000000;stroke-width:0.3;" width="184.8" x="453.882" y="791.952"/><text fill="#000000" font-family="Arial Unicode MS" font-size="12" lengthAdjust="spacing" textLength="88.8" x="501.882" y="807.7781">CoberturaParser</text><line style="stroke:#000000;stroke-width:0.3;" x1="454.482" x2="638.082" y1="814.0301" y2="814.0301"/><line style="stroke:#000000;stroke-width:0.3;" x1="454.482" x2="638.082" y1="818.8301" y2="818.8301"/><text fill="#000000" font-family="Arial Unicode MS" font-size="12" lengthAdjust="spacing" textLength="177.6" x="457.482" y="834.0563">+parse(reader, log): ModuleNode</text></g><!--class JacocoParser--><g id="elem_JacocoParser"><rect codeLine="46" fill="#F0F0F0" height="47.7563" id="JacocoParser" rx="1.5" ry="1.5" style="stroke:#000000;stroke-width:0.3;" width="184.8" x="42.282" y="791.952"/><text fill="#000000" font-family="Arial Unicode MS" font-size="12" lengthAdjust="spacing" textLength="73.2" x="98.082" y="807.7781">JacocoParser</text><line style="stroke:#000000;stroke-width:0.3;" x1="42.882" x2="226.482" y1="814.0301" y2="814.0301"/><line style="stroke:#000000;stroke-width:0.3;" x1="42.882" x2="226.482" y1="818.8301" y2="818.8301"/><text fill="#000000" font-family="Arial Unicode MS" font-size="12" lengthAdjust="spacing" textLength="177.6" x="45.882" y="834.0563">+parse(reader, log): ModuleNode</text></g><!--class PitestParser--><g id="elem_PitestParser"><rect codeLine="50" fill="#F0F0F0" height="47.7563" id="PitestParser" rx="1.5" ry="1.5" style="stroke:#000000;stroke-width:0.3;" width="184.8" x="248.082" y="791.952"/><text fill="#000000" font-family="Arial Unicode MS" font-size="12" lengthAdjust="spacing" textLength="65.4" x="307.782" y="807.7781">PitestParser</text><line style="stroke:#000000;stroke-width:0.3;" x1="248.682" x2="432.282" y1="814.0301" y2="814.0301"/><line style="stroke:#000000;stroke-width:0.3;" x1="248.682" x2="432.282" y1="818.8301" y2="818.8301"/><text fill="#000000" font-family="Arial Unicode MS" font-size="12" lengthAdjust="spacing" textLength="177.6" x="251.682" y="834.0563">+parse(reader, log): ModuleNode</text></g><!--class ParserRegistry--><g id="elem_ParserRegistry"><rect codeLine="166" fill="#F0F0F0" height="47.7563" id="ParserRegistry" rx="1.5" ry="1.5" style="stroke:#000000;stroke-width:0.3;" width="200.4" x="240.282" y="910.152"/><text fill="#000000" font-family="Arial Unicode MS" font-size="12" lengthAdjust="spacing" textLength="79.2" x="300.882" y="925.9781">ParserRegistry</text><line style="stroke:#000000;stroke-width:0.3;" x1="240.882" x2="440.082" y1="932.2301" y2="932.2301"/><line style="stroke:#000000;stroke-width:0.3;" x1="240.882" x2="440.082" y1="937.0301" y2="937.0301"/><text fill="#000000" font-family="Arial Unicode MS" font-size="12" lengthAdjust="spacing" text-decoration="underline" textLength="193.2" x="243.882" y="952.2562">+getParser(String): CoverageParser</text></g><!--class Serializable--><g id="elem_Serializable"><rect codeLine="32" fill="#F0F0F0" height="59.0344" id="Serializable" rx="1.5" ry="1.5" style="stroke:#000000;stroke-width:0.3;" width="210" x="1082.082" y="379.752"/><text fill="#000000" font-family="Arial Unicode MS" font-size="12" font-style="italic" lengthAdjust="spacing" textLength="60.6" x="1156.782" y="395.5781">Serializable</text><line style="stroke:#000000;stroke-width:0.3;" x1="1082.682" x2="1291.482" y1="401.8301" y2="401.8301"/><text fill="#000000" font-family="Arial Unicode MS" font-size="12" lengthAdjust="spacing" textLength="202.8" x="1085.682" y="417.0563">writeObject(out: ObjectOutputStream)</text><text fill="#000000" font-family="Arial Unicode MS" font-size="12" lengthAdjust="spacing" textLength="184.2" x="1085.682" y="433.1344">readObject(in: ObjectInputStream)</text></g><!--link LinesOfCode to IntegerValue--><g id="link_LinesOfCode_IntegerValue"><path codeLine="151" d="M232.914,97.416 C240.798,107.22 250.446,119.214 260.52,131.736 " fill="none" id="LinesOfCode-to-IntegerValue" style="stroke:#000000;stroke-width:1.2;"/><polygon fill="none" points="263.646,128.928,267.894,140.91,257.1,134.19,263.646,128.928" style="stroke:#000000;stroke-width:1.2;"/></g><!--link CyclomaticComplexity to IntegerValue--><g id="link_CyclomaticComplexity_IntegerValue"><path codeLine="152" d="M426.72,97.416 C418.164,107.268 407.682,119.334 396.744,131.922 " fill="none" id="CyclomaticComplexity-to-IntegerValue" style="stroke:#000000;stroke-width:1.2;"/><polygon fill="none" points="399.954,134.628,388.914,140.934,393.618,129.12,399.954,134.628" style="stroke:#000000;stroke-width:1.2;"/></g><!--link Coverage to Value--><g id="link_Coverage_Value"><path codeLine="154" d="M553.482,294.24 C553.482,306.732 553.482,319.626 553.482,332.04 " fill="none" id="Coverage-to-Value" style="stroke:#000000;stroke-width:1.2;"/><polygon fill="none" points="557.682,331.866,553.482,343.866,549.282,331.866,557.682,331.866" style="stroke:#000000;stroke-width:1.2;"/></g><!--link FractionValue to Value--><g id="link_FractionValue_Value"><path codeLine="155" d="M702.078,278.274 C680.892,296.85 657.594,317.274 635.862,336.33 " fill="none" id="FractionValue-to-Value" style="stroke:#000000;stroke-width:1.2;"/><polygon fill="none" points="638.802,339.336,627.012,344.088,633.264,333.024,638.802,339.336" style="stroke:#000000;stroke-width:1.2;"/></g><!--link IntegerValue to Value--><g id="link_IntegerValue_Value"><path codeLine="156" d="M409.95,286.038 C429.222,302.49 449.73,319.992 469.032,336.468 " fill="none" id="IntegerValue-to-Value" style="stroke:#000000;stroke-width:1.2;"/><polygon fill="none" points="471.606,333.144,478.008,344.13,466.152,339.534,471.606,333.144" style="stroke:#000000;stroke-width:1.2;"/></g><!--reverse link Node to MethodNode--><g id="link_Node_MethodNode"><path codeLine="158" d="M858.198,456.702 C881.07,473.088 906.516,491.898 929.082,509.952 C938.526,517.506 948.39,525.882 957.69,534.006 " fill="none" id="Node-backto-MethodNode" style="stroke:#000000;stroke-width:1.2;"/><polygon fill="none" points="855.798,460.146,848.46,449.766,860.67,453.306,855.798,460.146" style="stroke:#000000;stroke-width:1.2;"/></g><!--reverse link Node to ClassNode--><g id="link_Node_ClassNode"><path codeLine="159" d="M812.766,460.872 C825.732,490.626 841.464,526.716 851.574,549.9 " fill="none" id="Node-backto-ClassNode" style="stroke:#000000;stroke-width:1.2;"/><polygon fill="none" points="808.98,462.708,808.038,450.03,816.684,459.348,808.98,462.708" style="stroke:#000000;stroke-width:1.2;"/></g><!--reverse link Node to PackageNode--><g id="link_Node_PackageNode"><path codeLine="160" d="M768.33,460.998 C756.846,487.572 743.184,519.174 733.272,542.118 " fill="none" id="Node-backto-PackageNode" style="stroke:#000000;stroke-width:1.2;"/><polygon fill="none" points="764.454,459.378,773.076,450.03,772.17,462.708,764.454,459.378" style="stroke:#000000;stroke-width:1.2;"/></g><!--reverse link Node to ModuleNode--><g id="link_Node_ModuleNode"><path codeLine="161" d="M722.676,454.014 C697.716,470.916 669.492,490.746 644.682,509.952 C634.962,517.476 624.834,525.876 615.324,534.048 " fill="none" id="Node-backto-ModuleNode" style="stroke:#000000;stroke-width:1.2;"/><polygon fill="none" points="720.288,450.564,732.588,447.348,724.974,457.53,720.288,450.564" style="stroke:#000000;stroke-width:1.2;"/></g><!--reverse link Node to ContainerNode--><g id="link_Node_ContainerNode"><path codeLine="162" d="M721.902,448.26 C703.638,457.428 683.646,466.518 664.482,473.352 C593.484,498.666 566.79,477.24 498.882,509.952 C478.164,519.93 458.07,536.352 443.382,550.008 " fill="none" id="Node-backto-ContainerNode" style="stroke:#000000;stroke-width:1.2;"/><polygon fill="none" points="719.922,444.552,732.516,442.818,723.75,452.028,719.922,444.552" style="stroke:#000000;stroke-width:1.2;"/></g><!--reverse link Node to FileNode--><g id="link_Node_FileNode"><path codeLine="163" d="M721.944,449.844 C703.788,458.922 683.832,467.574 664.482,473.352 C526.392,514.602 471.648,446.43 342.282,509.952 C323.904,518.976 307.938,535.788 296.844,549.864 " fill="none" id="Node-backto-FileNode" style="stroke:#000000;stroke-width:1.2;"/><polygon fill="none" points="719.898,446.178,732.486,444.42,723.738,453.648,719.898,446.178" style="stroke:#000000;stroke-width:1.2;"/></g><!--reverse link CoberturaParser to ParserRegistry--><g id="link_CoberturaParser_ParserRegistry"><path codeLine="170" d="M501.246,842.154 C465.744,862.338 416.64,890.256 382.068,909.912 " fill="none" id="CoberturaParser-backto-ParserRegistry" style="stroke:#000000;stroke-width:1.2;stroke-dasharray:7.0,7.0;"/><polygon fill="#000000" points="503.844,840.678,497.9637,841.2629,501.2366,842.1617,500.3378,845.4347,503.844,840.678" style="stroke:#000000;stroke-width:1.2;"/></g><!--reverse link PitestParser to ParserRegistry--><g id="link_PitestParser_ParserRegistry"><path codeLine="171" d="M340.482,844.134 C340.482,864.132 340.482,890.892 340.482,909.912 " fill="none" id="PitestParser-backto-ParserRegistry" style="stroke:#000000;stroke-width:1.2;stroke-dasharray:7.0,7.0;"/><polygon fill="#000000" points="340.482,841.134,338.082,846.534,340.482,844.134,342.882,846.534,340.482,841.134" style="stroke:#000000;stroke-width:1.2;"/></g><!--reverse link JacocoParser to ParserRegistry--><g id="link_JacocoParser_ParserRegistry"><path codeLine="172" d="M179.718,842.154 C215.22,862.338 264.324,890.256 298.896,909.912 " fill="none" id="JacocoParser-backto-ParserRegistry" style="stroke:#000000;stroke-width:1.2;stroke-dasharray:7.0,7.0;"/><polygon fill="#000000" points="177.12,840.678,180.6262,845.4347,179.7274,842.1617,183.0003,841.2629,177.12,840.678" style="stroke:#000000;stroke-width:1.2;"/></g><!--reverse link CoverageParser to PitestParser--><g id="link_CoverageParser_PitestParser"><path codeLine="175" d="M267,732.42 C283.758,751.332 304.428,774.66 319.572,791.754 " fill="none" id="CoverageParser-backto-PitestParser" style="stroke:#000000;stroke-width:1.2;"/><polygon fill="none" points="264.06,735.432,259.248,723.666,270.348,729.864,264.06,735.432" style="stroke:#000000;stroke-width:1.2;"/></g><!--reverse link CoverageParser to JacocoParser--><g id="link_CoverageParser_JacocoParser"><path codeLine="176" d="M208.59,732.42 C191.736,751.332 170.946,774.66 155.712,791.754 " fill="none" id="CoverageParser-backto-JacocoParser" style="stroke:#000000;stroke-width:1.2;"/><polygon fill="none" points="205.272,729.828,216.396,723.666,211.548,735.414,205.272,729.828" style="stroke:#000000;stroke-width:1.2;"/></g><!--reverse link CoverageParser to CoberturaParser--><g id="link_CoverageParser_CoberturaParser"><path codeLine="177" d="M342.84,715.644 C375.924,722.754 412.068,732.69 443.682,746.352 C470.484,757.932 497.76,776.682 517.452,791.712 " fill="none" id="CoverageParser-backto-CoberturaParser" style="stroke:#000000;stroke-width:1.2;"/><polygon fill="none" points="342.12,719.784,331.218,713.244,343.818,711.558,342.12,719.784" style="stroke:#000000;stroke-width:1.2;"/></g><!--reverse link Node to Node--><g id="link_Node_Node"><path codeLine="179" d="M855.99,395.976 C863.562,398.412 868.482,402.81 868.482,409.152 C868.482,417.612 859.734,422.604 847.62,424.122 " fill="none" id="Node-backto-Node" style="stroke:#000000;stroke-width:1.2;"/><polygon fill="none" points="848.508,394.374,851.5276,397.4727,855.5493,395.8772,852.5297,392.7784,848.508,394.374" style="stroke:#000000;stroke-width:1.2;"/><text fill="#000000" font-family="sans-serif" font-size="12" lengthAdjust="spacing" textLength="46.8" x="872.082" y="413.8535">children</text></g><!--link Mutation to FileNode--><g id="link_Mutation_FileNode"><path codeLine="181" d="M208.428,574.152 C212.496,574.152 216.564,574.152 220.632,574.152 " fill="none" id="Mutation-to-FileNode" style="stroke:#000000;stroke-width:1.2;"/><polygon fill="none" points="228.348,574.152,224.748,571.752,221.148,574.152,224.748,576.552,228.348,574.152" style="stroke:#000000;stroke-width:1.2;"/></g><!--link Value to Node--><g id="link_Value_Node"><path codeLine="182" d="M653.82,409.152 C677.784,409.152 702.762,409.152 724.704,409.152 " fill="none" id="Value-to-Node" style="stroke:#000000;stroke-width:1.2;"/><polygon fill="none" points="732.366,409.152,728.766,406.752,725.166,409.152,728.766,411.552,732.366,409.152" style="stroke:#000000;stroke-width:1.2;"/><text fill="#000000" font-family="sans-serif" font-size="12" lengthAdjust="spacing" textLength="36" x="664.782" y="404.5535">values</text></g><!--link Value to CoverageParser--><!--reverse link Serializable to Value--><g id="link_Serializable_Value"><path codeLine="185" d="M1132.968,373.05 C1114.494,362.328 1093.242,351.666 1072.482,344.952 C1005.816,323.4 985.83,330.918 915.882,326.904 C830.046,321.972 806.874,324.846 723.282,344.952 C700.374,350.46 676.374,358.224 653.862,366.462 " fill="none" id="Serializable-backto-Value" style="stroke:#000000;stroke-width:1.2;stroke-dasharray:7.0,7.0;"/><polygon fill="none" points="1134.87,369.294,1143.012,379.056,1130.556,376.5,1134.87,369.294" style="stroke:#000000;stroke-width:1.2;"/></g><!--reverse link Serializable to Node--><g id="link_Serializable_Node"><path codeLine="186" d="M1069.014,409.152 C995.214,409.152 921.414,409.152 847.608,409.152 " fill="none" id="Serializable-backto-Node" style="stroke:#000000;stroke-width:1.2;stroke-dasharray:7.0,7.0;"/><polygon fill="none" points="1068.918,404.952,1080.918,409.152,1068.918,413.352,1068.918,404.952" style="stroke:#000000;stroke-width:1.2;"/></g><!--SRC=[pLRTRzis47_NNq4qBpPS6K6n9oCmq6G8a2qVnTpjPTq3JPqbpfGea5HRDyd_lYEf3r9MdMx5WCA0HTpzxljul89dG1XNJ41IsBCse42QGmr9elUyggcY9M62QaqU4q8kATldIZPLTYM5LEHiTsv_bYDL1ggbqdFxEyPVNDpB3FHwJPXKbUPYFuNvWuh6WKh96DMy6gdV2fH0sbkbvAUOT2qhSqzBi4nE1VczuWmjahjDozpmBq3Ud2VFONmr2jCSV8JV5WUlC5CL5UYbu7bXD1Mb_DyTTOKOk3-DMM-DKNpR6BXXidAOym2ImOusmeJQ0-wHaoFM-uApVGNO26-In8M_emp81gp__0lT2Y1jNYm34sFJISWdnGqyRFy6PcQoCIlYpm-DgHkpCGfeENT0F6KjZbSTxAOAK9WBrwMHpHq7aUaawOh8v4TGza0rUGLPiopAPK5t5QXbntg5hlLu35638b59lUU-xQ_a5fHf57tdWPwty78pwpIerqJ8VBuYTp9h1DWUTo3qTz3p2sMIoUzKyWvpgSr_KO9gw5ORHPdf0_FPwBKjo6C7UNv1vx4sIoR3_NvCKb82TYD3EVT5PhrVhv5UOT-lYEl-bXQPnWhMXndQwonrxbQ6SYpZaQL5Bn5X1j71yP67MZQAWLwHMwxD1ROPh_9re2-8U45qBJYctdMDdiq7zIrjmgySKC0KLfLN7kWEf88WxV-f03j-41oOGcOJmGbCn7rJOlUko0tsTWxAXippYc8xmuHBWwf1_JKNSCAXZZtH4MwCas2S7_T4L7UQPJDf2kkk4vcttmXKqiylWp8GXevXrvR5SKQ7IAulGTZPfa0NKcIpJ3OuL12-bL80ZT6wdJiG57GetO49MLB3sPKiQm6VkJd4qPyHXXVAm8pxQlHbcVSd7qklynPBg1zsLpx_twMgk-tZWhYP25dO8YNNEgGi2DSRC3Reopuh9wfreaOlLUPRwd6o2fskoURRjSp8v0yNoEWQXUKS1pIk_WyNpbbmU_vjnzurXbhpRjwqPj2Hdy7WNW0PJk15ZzdWfz5stlgJOw8bIxdjv-0WWaiESjgZ8tk7BVLNBd1qvk_neNMSmRJbECFeOroMfxIfq_2wJlAdHaIIn93sciRKgAjZLfIxn4_gfpGDP_b079wFWHQ-Gu7uyF85uj7pEj3xHw1VgXJa-AAgGxH9-KNZjvZbLvX7RUl8djs3QL4pNm_tfeThIhWIZVGjctgv7gzhNmU6gzJNKU7MPii-Mffy1aDDKu18oHHWxBJFhKpT2hGYhE0YKr0bIVyQorJ0pgJz1MYR8fL-4LkHZsvEV30Tuq_Sd3Ee_ahJSKQJU8L_MhOlzugWz17Fr_av-GS0]--></g></svg>
