<?xml version="1.0" encoding="us-ascii" standalone="no"?>
<svg xmlns="http://www.w3.org/2000/svg" contentStyleType="text/css" height="1346px" preserveAspectRatio="none"
     style="width:910px;height:1346px;background:#FFFFFF;" version="1.1" viewBox="0 0 910 1346" width="910px"
     zoomAndPan="magnify"><defs/><g><rect fill="none" height="21.1992" style="stroke:none;stroke-width:1.0;" width="877" x="15" y="12.2969"/><ellipse cx="151.5" cy="48.4961" fill="#222222" rx="10" ry="10" style="stroke:#222222;stroke-width:1.0;"/><rect fill="#4AD386" height="46.7969" rx="12.5" ry="12.5" style="stroke:#000000;stroke-width:0.5;" width="162" x="70.5" y="78.4961"/><text fill="#000000" font-family="Arial Unicode MS" font-size="20" lengthAdjust="spacing" textLength="142" x="80.5" y="109.873">run Maven build</text><rect fill="#4AD386" height="46.7969" rx="12.5" ry="12.5" style="stroke:#000000;stroke-width:0.5;" width="160" x="71.5" y="506.0742"/><text fill="#000000" font-family="Arial Unicode MS" font-size="20" lengthAdjust="spacing" textLength="140" x="81.5" y="537.4512">run autograding</text><rect fill="#4AD386" height="46.7969" rx="12.5" ry="12.5" style="stroke:#000000;stroke-width:0.5;" width="261" x="21" y="1245.293"/><text fill="#000000" font-family="Arial Unicode MS" font-size="20" lengthAdjust="spacing" textLength="241" x="31" y="1276.6699">show results in pull request</text><ellipse cx="151.5" cy="1323.0898" fill="none" rx="11" ry="11" style="stroke:#222222;stroke-width:1.0;"/><ellipse cx="151.5" cy="1323.0898" fill="#222222" rx="6" ry="6" style="stroke:#111111;stroke-width:1.0;"/><line style="stroke:#000000;stroke-width:1.5;" x1="15" x2="15" y1="12.2969" y2="1334.0898"/><rect fill="#4AD386" height="46.7969" rx="12.5" ry="12.5" style="stroke:#000000;stroke-width:0.5;" width="164" x="327.5" y="145.293"/><text fill="#000000" font-family="Arial Unicode MS" font-size="20" lengthAdjust="spacing" textLength="144" x="337.5" y="176.6699">compile sources</text><rect fill="#4AD386" height="73.5938" rx="12.5" ry="12.5" style="stroke:#000000;stroke-width:0.5;" width="175" x="322" y="212.0898"/><text fill="#000000" font-family="Arial Unicode MS" font-size="20" lengthAdjust="spacing" textLength="155" x="332" y="243.4668">prepare classfiles</text><text fill="#000000" font-family="Arial Unicode MS" font-size="20" lengthAdjust="spacing" textLength="112" x="356" y="270.2637">for coverage</text><rect fill="#4AD386" height="46.7969" rx="12.5" ry="12.5" style="stroke:#000000;stroke-width:0.5;" width="98" x="360.5" y="305.6836"/><text fill="#000000" font-family="Arial Unicode MS" font-size="20" lengthAdjust="spacing" textLength="78" x="370.5" y="337.0605">run tests</text><rect fill="#4AD386" height="46.7969" rx="12.5" ry="12.5" style="stroke:#000000;stroke-width:0.5;" width="235" x="292" y="372.4805"/><text fill="#000000" font-family="Arial Unicode MS" font-size="20" lengthAdjust="spacing" textLength="215" x="302" y="403.8574">calculate code coverage</text><rect fill="#4AD386" height="46.7969" style="stroke:#000000;stroke-width:0.5;" width="114" x="352.5" y="439.2773"/><text fill="#000000" font-family="Arial Unicode MS" font-size="20" lengthAdjust="spacing" textLength="94" x="362.5" y="470.6543">jacoco.xml</text><line style="stroke:#000000;stroke-width:1.5;" x1="286" x2="286" y1="12.2969" y2="1334.0898"/><rect fill="#4AD386" height="46.7969" style="stroke:#000000;stroke-width:0.5;" width="114" x="617" y="572.8711"/><text fill="#000000" font-family="Arial Unicode MS" font-size="20" lengthAdjust="spacing" textLength="94" x="627" y="604.248">jacoco.xml</text><rect fill="#4AD386" height="46.7969" rx="12.5" ry="12.5" style="stroke:#000000;stroke-width:0.5;" width="274" x="537" y="639.668"/><text fill="#000000" font-family="Arial Unicode MS" font-size="20" lengthAdjust="spacing" textLength="254" x="547" y="671.0449">read and parse coverage file</text><rect fill="#4AD386" height="73.5938" rx="12.5" ry="12.5" style="stroke:#000000;stroke-width:0.5;" width="157" x="595.5" y="750.4648"/><text fill="#000000" font-family="Arial Unicode MS" font-size="20" lengthAdjust="spacing" textLength="115" x="617.5" y="781.8418">create or link</text><text fill="#000000" font-family="Arial Unicode MS" font-size="20" lengthAdjust="spacing" textLength="137" x="605.5" y="808.6387">Node instances</text><rect fill="#4AD386" height="46.7969" style="stroke:#000000;stroke-width:0.5;" width="67" x="640.5" y="844.0586"/><text fill="#000000" font-family="Arial Unicode MS" font-size="20" lengthAdjust="spacing" textLength="47" x="650.5" y="875.4355">Node</text><rect fill="#4AD386" height="73.5938" rx="12.5" ry="12.5" style="stroke:#000000;stroke-width:0.5;" width="160" x="594" y="910.957"/><text fill="#000000" font-family="Arial Unicode MS" font-size="20" lengthAdjust="spacing" textLength="56" x="640" y="942.334">create</text><text fill="#000000" font-family="Arial Unicode MS" font-size="20" lengthAdjust="spacing" textLength="140" x="604" y="969.1309">Value instances</text><rect fill="#4AD386" height="46.7969" style="stroke:#000000;stroke-width:0.5;" width="70" x="639" y="1004.5508"/><text fill="#000000" font-family="Arial Unicode MS" font-size="20" lengthAdjust="spacing" textLength="50" x="649" y="1035.9277">Value</text><polygon fill="#4AD386" points="674,706.4648,686,718.4648,674,730.4648,662,718.4648,674,706.4648" style="stroke:#000000;stroke-width:0.5;"/><polygon fill="#4AD386" points="600.5,1071.3477,747.5,1071.3477,759.5,1098.1445,747.5,1124.9414,600.5,1124.9414,588.5,1098.1445,600.5,1071.3477" style="stroke:#000000;stroke-width:0.5;"/><text fill="#000000" font-family="Arial Unicode MS" font-size="20" lengthAdjust="spacing" textLength="147" x="600.5" y="1092.7246">coverage results</text><text fill="#000000" font-family="Arial Unicode MS" font-size="20" lengthAdjust="spacing" textLength="88" x="630.5" y="1119.5215">available?</text><text fill="#000000" font-family="sans-serif" font-size="20" lengthAdjust="spacing" textLength="45" x="777.5" y="1093.9258">[yes]</text><rect fill="#4AD386" height="46.7969" rx="12.5" ry="12.5" style="stroke:#000000;stroke-width:0.5;" width="160" x="594" y="1178.4961"/><text fill="#000000" font-family="Arial Unicode MS" font-size="20" lengthAdjust="spacing" textLength="140" x="604" y="1209.873">run autograding</text><line style="stroke:#000000;stroke-width:1.5;" x1="531" x2="531" y1="12.2969" y2="1334.0898"/><line style="stroke:#000000;stroke-width:1.5;" x1="890" x2="890" y1="12.2969" y2="1334.0898"/><line style="stroke:#000000;stroke-width:2.0;" x1="151.5" x2="151.5" y1="58.4961" y2="78.4961"/><polygon fill="#000000" points="147.5,68.4961,151.5,78.4961,155.5,68.4961,151.5,72.4961" style="stroke:#000000;stroke-width:1.0;"/><line style="stroke:#000000;stroke-width:2.0;" x1="151.5" x2="151.5" y1="1292.0898" y2="1312.0898"/><polygon fill="#000000" points="147.5,1302.0898,151.5,1312.0898,155.5,1302.0898,151.5,1306.0898" style="stroke:#000000;stroke-width:1.0;"/><line style="stroke:#000000;stroke-width:2.0;" x1="409.5" x2="409.5" y1="192.0898" y2="212.0898"/><polygon fill="#000000" points="405.5,202.0898,409.5,212.0898,413.5,202.0898,409.5,206.0898" style="stroke:#000000;stroke-width:1.0;"/><line style="stroke:#000000;stroke-width:2.0;" x1="409.5" x2="409.5" y1="285.6836" y2="305.6836"/><polygon fill="#000000" points="405.5,295.6836,409.5,305.6836,413.5,295.6836,409.5,299.6836" style="stroke:#000000;stroke-width:1.0;"/><line style="stroke:#000000;stroke-width:2.0;" x1="409.5" x2="409.5" y1="352.4805" y2="372.4805"/><polygon fill="#000000" points="405.5,362.4805,409.5,372.4805,413.5,362.4805,409.5,366.4805" style="stroke:#000000;stroke-width:1.0;"/><line style="stroke:#000000;stroke-width:2.0;" x1="409.5" x2="409.5" y1="419.2773" y2="439.2773"/><polygon fill="#000000" points="405.5,429.2773,409.5,439.2773,413.5,429.2773,409.5,433.2773" style="stroke:#000000;stroke-width:1.0;"/><line style="stroke:#000000;stroke-width:2.0;" x1="674" x2="674" y1="619.668" y2="639.668"/><polygon fill="#000000" points="670,629.668,674,639.668,678,629.668,674,633.668" style="stroke:#000000;stroke-width:1.0;"/><line style="stroke:#000000;stroke-width:2.0;" x1="674" x2="674" y1="824.0586" y2="844.0586"/><polygon fill="#000000" points="670,834.0586,674,844.0586,678,834.0586,674,838.0586" style="stroke:#000000;stroke-width:1.0;"/><line style="stroke:#000000;stroke-width:2.0;" x1="674" x2="674" y1="890.8555" y2="910.957"/><polygon fill="#000000" points="670,900.957,674,910.957,678,900.957,674,904.957" style="stroke:#000000;stroke-width:1.0;"/><line style="stroke:#000000;stroke-width:2.0;" x1="674" x2="674" y1="984.5508" y2="1004.5508"/><polygon fill="#000000" points="670,994.5508,674,1004.5508,678,994.5508,674,998.5508" style="stroke:#000000;stroke-width:1.0;"/><line style="stroke:#000000;stroke-width:2.0;" x1="674" x2="674" y1="730.4648" y2="750.4648"/><polygon fill="#000000" points="670,740.4648,674,750.4648,678,740.4648,674,744.4648" style="stroke:#000000;stroke-width:1.0;"/><line style="stroke:#000000;stroke-width:2.0;" x1="759.5" x2="771.5" y1="1098.1445" y2="1098.1445"/><polygon fill="#000000" points="767.5,910.8555,771.5,900.8555,775.5,910.8555,771.5,906.8555" style="stroke:#000000;stroke-width:2.0;"/><line style="stroke:#000000;stroke-width:2.0;" x1="771.5" x2="771.5" y1="718.4648" y2="1098.1445"/><line style="stroke:#000000;stroke-width:2.0;" x1="771.5" x2="686" y1="718.4648" y2="718.4648"/><polygon fill="#000000" points="696,714.4648,686,718.4648,696,722.4648,692,718.4648" style="stroke:#000000;stroke-width:1.0;"/><line style="stroke:#000000;stroke-width:2.0;" x1="674" x2="674" y1="1051.3477" y2="1071.3477"/><polygon fill="#000000" points="670,1061.3477,674,1071.3477,678,1061.3477,674,1065.3477" style="stroke:#000000;stroke-width:1.0;"/><line style="stroke:#000000;stroke-width:2.0;" x1="674" x2="674" y1="686.4648" y2="706.4648"/><polygon fill="#000000" points="670,696.4648,674,706.4648,678,696.4648,674,700.4648" style="stroke:#000000;stroke-width:1.0;"/><line style="stroke:#000000;stroke-width:2.0;" x1="674" x2="674" y1="1124.9414" y2="1178.4961"/><polygon fill="#000000" points="670,1168.4961,674,1178.4961,678,1168.4961,674,1172.4961" style="stroke:#000000;stroke-width:1.0;"/><text fill="#000000" font-family="sans-serif" font-size="20" lengthAdjust="spacing" textLength="207" x="678" y="1156.9961">[no, last line reached]</text><line style="stroke:#000000;stroke-width:2.0;" x1="151.5" x2="151.5" y1="125.293" y2="130.293"/><line style="stroke:#000000;stroke-width:2.0;" x1="151.5" x2="409.5" y1="130.293" y2="130.293"/><line style="stroke:#000000;stroke-width:2.0;" x1="409.5" x2="409.5" y1="130.293" y2="145.293"/><polygon fill="#000000" points="405.5,135.293,409.5,145.293,413.5,135.293,409.5,139.293" style="stroke:#000000;stroke-width:1.0;"/><line style="stroke:#000000;stroke-width:2.0;" x1="409.5" x2="409.5" y1="486.0742" y2="491.0742"/><line style="stroke:#000000;stroke-width:2.0;" x1="409.5" x2="151.5" y1="491.0742" y2="491.0742"/><line style="stroke:#000000;stroke-width:2.0;" x1="151.5" x2="151.5" y1="491.0742" y2="506.0742"/><polygon fill="#000000" points="147.5,496.0742,151.5,506.0742,155.5,496.0742,151.5,500.0742" style="stroke:#000000;stroke-width:1.0;"/><line style="stroke:#000000;stroke-width:2.0;" x1="151.5" x2="151.5" y1="552.8711" y2="557.8711"/><line style="stroke:#000000;stroke-width:2.0;" x1="151.5" x2="674" y1="557.8711" y2="557.8711"/><line style="stroke:#000000;stroke-width:2.0;" x1="674" x2="674" y1="557.8711" y2="572.8711"/><polygon fill="#000000" points="670,562.8711,674,572.8711,678,562.8711,674,566.8711" style="stroke:#000000;stroke-width:1.0;"/><line style="stroke:#000000;stroke-width:2.0;" x1="674" x2="674" y1="1225.293" y2="1230.293"/><line style="stroke:#000000;stroke-width:2.0;" x1="674" x2="151.5" y1="1230.293" y2="1230.293"/><line style="stroke:#000000;stroke-width:2.0;" x1="151.5" x2="151.5" y1="1230.293" y2="1245.293"/><polygon fill="#000000" points="147.5,1235.293,151.5,1245.293,155.5,1235.293,151.5,1239.293" style="stroke:#000000;stroke-width:1.0;"/><text fill="#000000" font-family="sans-serif" font-size="18" lengthAdjust="spacing" textLength="121" x="90" y="29.6992">GitHub Action</text><text fill="#000000" font-family="sans-serif" font-size="18" lengthAdjust="spacing" textLength="56" x="380.5" y="29.6992">Maven</text><text fill="#000000" font-family="sans-serif" font-size="18" lengthAdjust="spacing" textLength="317" x="552" y="29.6992">Autograding (using Coverage Model)</text><!--SRC=[VL5DRzD04BtlhnY9Io81gWf2A9P0RYlWabuAN8WFa_KqMRAUDVkHK33_dLdNRPEOi3vuP-RDc_TcmyPmYnuRG1tDriGx-AqkK6zMtYMkBvrr7fwzBgzUlNsZBfoloGyvFClVGMvffL6LthlTAF5vRVI6AGGuLnySnsji24flqC8NDjhL1FERld9ZVX6Sdwa_IeL7TIFIez8-_LxjmTILmSPnVShOwOQHkvFGB7riQ0plvUxx_0zapAUwZoP-Iaie1UkuKo6YZshc4yCSjyImJCRMXUhwg5CpxPhMM8BWajSK2ZLhFSay0cqnX5kfXGM3d5ingTsMFAwekAUC569kqMXriXYbAGlPGtr7xRHx-REnrKXRJu4fkfN7sl1AL9LF4KnIoB_BWGpcGcsdtI7dp1FMW5o3Q0vFeo4BBvHO8HJ_05g0eayyMCER1LzdeOPbFtnlEoUgZCndG2_uAzfqYEiprS0CktLUtkHnhAUGR1ms1hX5Ot5fwVqKJ829fBxTKQYcwiKxkR9x3hBac2NbLjHhgglYNuivNbrOkzt3C947RR9MuXz9NgIGLtVjSSzV]--></g></svg>
